<svg width="148" height="148" viewBox="0 0 148 148" fill="none" xmlns="http://www.w3.org/2000/svg">
<path d="M99.6945 37C99.1269 37 98.6667 37.4601 98.6667 38.0278V48.3055C98.6667 48.8732 99.1269 49.3333 99.6945 49.3333H109.972C110.54 49.3333 111 48.8732 111 48.3055V38.0278C111 37.4601 110.54 37 109.972 37H99.6945ZM98.6667 111V107.917C98.6667 106.214 100.047 104.833 101.75 104.833C103.453 104.833 104.833 106.214 104.833 107.917V111H111V107.917C111 106.214 112.38 104.833 114.083 104.833C115.786 104.833 117.167 106.214 117.167 107.917V114.083C117.167 115.786 115.786 117.167 114.083 117.167H89.4167C87.7138 117.167 86.3334 115.786 86.3334 114.083V107.917C86.3334 106.214 87.7138 104.833 89.4167 104.833C91.1196 104.833 92.5 106.214 92.5 107.917V111H98.6667ZM80.1667 67.8333H83.25C84.9529 67.8333 86.3334 69.2138 86.3334 70.9166C86.3334 72.6195 84.9529 74 83.25 74H70.9167C69.2138 74 67.8334 72.6195 67.8334 70.9166C67.8334 69.2138 69.2138 67.8333 70.9167 67.8333H74V61.6666H64.75C63.0472 61.6666 61.6667 60.2862 61.6667 58.5833C61.6667 56.8804 63.0472 55.5 64.75 55.5H83.25C84.9529 55.5 86.3334 56.8804 86.3334 58.5833C86.3334 60.2862 84.9529 61.6666 83.25 61.6666H80.1667V67.8333ZM111 74H107.917C106.214 74 104.833 72.6195 104.833 70.9166C104.833 69.2138 106.214 67.8333 107.917 67.8333H111V64.75C111 63.0471 112.38 61.6666 114.083 61.6666C115.786 61.6666 117.167 63.0471 117.167 64.75V77.0833C117.167 78.7862 115.786 80.1666 114.083 80.1666C112.38 80.1666 111 78.7862 111 77.0833V74ZM80.1667 86.3333H77.0834C75.3805 86.3333 74 84.9529 74 83.25C74 81.5471 75.3805 80.1666 77.0834 80.1666H83.25C84.9529 80.1666 86.3334 81.5471 86.3334 83.25V95.5833C86.3334 97.2862 84.9529 98.6666 83.25 98.6666H64.75C63.0472 98.6666 61.6667 97.2862 61.6667 95.5833C61.6667 93.8804 63.0472 92.5 64.75 92.5H80.1667V86.3333ZM99.6945 30.8333H109.972C113.946 30.8333 117.167 34.0544 117.167 38.0278V48.3055C117.167 52.2789 113.946 55.5 109.972 55.5H99.6945C95.7211 55.5 92.5 52.2789 92.5 48.3055V38.0278C92.5 34.0544 95.7211 30.8333 99.6945 30.8333ZM38.0278 30.8333H48.3056C52.279 30.8333 55.5 34.0544 55.5 38.0278V48.3055C55.5 52.2789 52.279 55.5 48.3056 55.5H38.0278C34.0544 55.5 30.8334 52.2789 30.8334 48.3055V38.0278C30.8334 34.0544 34.0544 30.8333 38.0278 30.8333ZM38.0278 37C37.4602 37 37 37.4601 37 38.0278V48.3055C37 48.8732 37.4602 49.3333 38.0278 49.3333H48.3056C48.8732 49.3333 49.3334 48.8732 49.3334 48.3055V38.0278C49.3334 37.4601 48.8732 37 48.3056 37H38.0278ZM38.0278 92.5H48.3056C52.279 92.5 55.5 95.721 55.5 99.6944V109.972C55.5 113.946 52.279 117.167 48.3056 117.167H38.0278C34.0544 117.167 30.8334 113.946 30.8334 109.972V99.6944C30.8334 95.721 34.0544 92.5 38.0278 92.5ZM38.0278 98.6666C37.4602 98.6666 37 99.1268 37 99.6944V109.972C37 110.54 37.4602 111 38.0278 111H48.3056C48.8732 111 49.3334 110.54 49.3334 109.972V99.6944C49.3334 99.1268 48.8732 98.6666 48.3056 98.6666H38.0278ZM80.1667 37H64.75C63.0472 37 61.6667 35.6195 61.6667 33.9166C61.6667 32.2138 63.0472 30.8333 64.75 30.8333H83.25C84.9529 30.8333 86.3334 32.2138 86.3334 33.9166V46.25C86.3334 47.9529 84.9529 49.3333 83.25 49.3333C81.5472 49.3333 80.1667 47.9529 80.1667 46.25V37ZM64.75 49.3333C63.0472 49.3333 61.6667 47.9529 61.6667 46.25C61.6667 44.5471 63.0472 43.1666 64.75 43.1666H70.9167C72.6196 43.1666 74 44.5471 74 46.25C74 47.9529 72.6196 49.3333 70.9167 49.3333H64.75ZM33.9167 86.3333C32.2138 86.3333 30.8334 84.9529 30.8334 83.25C30.8334 81.5471 32.2138 80.1666 33.9167 80.1666H46.25C47.9529 80.1666 49.3334 81.5471 49.3334 83.25C49.3334 84.9529 47.9529 86.3333 46.25 86.3333H33.9167ZM58.5834 86.3333C56.8805 86.3333 55.5 84.9529 55.5 83.25C55.5 81.5471 56.8805 80.1666 58.5834 80.1666H64.75C66.4529 80.1666 67.8334 81.5471 67.8334 83.25C67.8334 84.9529 66.4529 86.3333 64.75 86.3333H58.5834ZM67.8334 111V114.083C67.8334 115.786 66.4529 117.167 64.75 117.167C63.0472 117.167 61.6667 115.786 61.6667 114.083V107.917C61.6667 106.214 63.0472 104.833 64.75 104.833H77.0834C78.7862 104.833 80.1667 106.214 80.1667 107.917C80.1667 109.62 78.7862 111 77.0834 111H67.8334ZM55.5 67.8333H58.5834C60.2863 67.8333 61.6667 69.2138 61.6667 70.9166C61.6667 72.6195 60.2863 74 58.5834 74H52.4167C50.7138 74 49.3334 72.6195 49.3334 70.9166V67.8333H46.25C44.5472 67.8333 43.1667 66.4529 43.1667 64.75C43.1667 63.0471 44.5472 61.6666 46.25 61.6666H52.4167C54.1196 61.6666 55.5 63.0471 55.5 64.75V67.8333ZM30.8334 64.75C30.8334 63.0471 32.2138 61.6666 33.9167 61.6666C35.6196 61.6666 37 63.0471 37 64.75V70.9166C37 72.6195 35.6196 74 33.9167 74C32.2138 74 30.8334 72.6195 30.8334 70.9166V64.75ZM92.5 64.75C92.5 63.0471 93.8805 61.6666 95.5834 61.6666C97.2862 61.6666 98.6667 63.0471 98.6667 64.75V77.0833C98.6667 78.7862 97.2862 80.1666 95.5834 80.1666C93.8805 80.1666 92.5 78.7862 92.5 77.0833V64.75ZM104.833 92.5V89.4166C104.833 87.7138 106.214 86.3333 107.917 86.3333H114.083C115.786 86.3333 117.167 87.7138 117.167 89.4166C117.167 91.1195 115.786 92.5 114.083 92.5H111V95.5833C111 97.2862 109.62 98.6666 107.917 98.6666H95.5834C93.8805 98.6666 92.5 97.2862 92.5 95.5833V89.4166C92.5 87.7138 93.8805 86.3333 95.5834 86.3333C97.2862 86.3333 98.6667 87.7138 98.6667 89.4166V92.5H104.833ZM18.5 40.0833C18.5 41.7862 17.1196 43.1666 15.4167 43.1666C13.7138 43.1666 12.3334 41.7862 12.3334 40.0833V27.75C12.3334 19.2356 19.2357 12.3333 27.75 12.3333H40.0834C41.7863 12.3333 43.1667 13.7138 43.1667 15.4166C43.1667 17.1195 41.7863 18.5 40.0834 18.5H27.75C22.6414 18.5 18.5 22.6413 18.5 27.75V40.0833ZM107.917 18.5C106.214 18.5 104.833 17.1195 104.833 15.4166C104.833 13.7138 106.214 12.3333 107.917 12.3333H120.25C128.764 12.3333 135.667 19.2356 135.667 27.75V40.0833C135.667 41.7862 134.286 43.1666 132.583 43.1666C130.88 43.1666 129.5 41.7862 129.5 40.0833V27.75C129.5 22.6413 125.359 18.5 120.25 18.5H107.917ZM40.0834 129.5C41.7863 129.5 43.1667 130.88 43.1667 132.583C43.1667 134.286 41.7863 135.667 40.0834 135.667H27.75C19.2357 135.667 12.3334 128.764 12.3334 120.25V107.917C12.3334 106.214 13.7138 104.833 15.4167 104.833C17.1196 104.833 18.5 106.214 18.5 107.917V120.25C18.5 125.359 22.6414 129.5 27.75 129.5H40.0834ZM129.5 107.917C129.5 106.214 130.88 104.833 132.583 104.833C134.286 104.833 135.667 106.214 135.667 107.917V120.25C135.667 128.764 128.764 135.667 120.25 135.667H107.917C106.214 135.667 104.833 134.286 104.833 132.583C104.833 130.88 106.214 129.5 107.917 129.5H120.25C125.359 129.5 129.5 125.359 129.5 120.25V107.917Z" fill="white"/>
</svg>
